<svg width="344" height="358" viewBox="0 0 344 358" fill="none" xmlns="http://www.w3.org/2000/svg">
<g clip-path="url(#clip0_47_181)">
<path d="M164.944 349.693C165.951 349.756 166.508 348.508 165.746 347.781L165.67 347.481C165.68 347.457 165.69 347.433 165.7 347.409C166.719 344.987 170.171 345.004 171.181 347.429C172.078 349.581 173.219 351.737 173.5 354.013C173.626 355.018 173.57 356.041 173.346 357.027C175.447 352.453 176.552 347.458 176.552 342.435C176.552 341.173 176.483 339.91 176.341 338.651C176.225 337.622 176.064 336.598 175.856 335.584C174.732 330.102 172.297 324.881 168.786 320.521C167.098 319.601 165.69 318.163 164.839 316.439C164.534 315.817 164.295 315.149 164.181 314.467C164.373 314.493 164.906 311.576 164.761 311.397C165.028 310.992 165.508 310.791 165.8 310.395C167.254 308.43 169.258 308.773 170.304 311.444C172.538 312.568 172.56 314.433 171.189 316.226C170.316 317.366 170.197 318.91 169.431 320.131C169.51 320.232 169.592 320.329 169.671 320.429C171.115 322.276 172.363 324.26 173.416 326.344C173.119 324.028 173.558 321.237 174.307 319.437C175.159 317.387 176.757 315.661 178.164 313.889C179.854 311.76 183.32 312.689 183.617 315.387C183.62 315.414 183.623 315.44 183.626 315.466C183.417 315.583 183.212 315.708 183.012 315.84C181.871 316.592 182.266 318.355 183.617 318.563L183.648 318.568C183.572 319.318 183.443 320.062 183.254 320.794C185.059 327.752 181.162 330.287 175.598 330.401C175.475 330.463 175.355 330.526 175.233 330.586C175.796 332.168 176.247 333.791 176.581 335.437C176.88 336.89 177.088 338.359 177.204 339.835C177.349 341.697 177.336 343.568 177.179 345.427L177.188 345.361C177.588 343.314 178.703 341.402 180.322 340.077C182.734 338.102 186.141 337.375 188.742 335.787C189.995 335.023 191.599 336.011 191.381 337.458L191.37 337.527C190.983 337.684 190.605 337.867 190.24 338.071C190.031 338.188 189.826 338.313 189.626 338.445C188.485 339.197 188.879 340.96 190.231 341.168L190.262 341.172C190.284 341.176 190.303 341.179 190.325 341.182C189.66 342.755 188.734 344.215 187.575 345.474C186.447 351.548 181.599 352.125 176.414 350.356H176.41C175.844 352.817 175.015 355.222 173.951 357.514H165.164C165.132 357.417 165.104 357.316 165.076 357.219C165.888 357.269 166.707 357.222 167.507 357.074C166.855 356.277 166.203 355.473 165.551 354.676C165.535 354.66 165.523 354.644 165.51 354.629C165.18 354.221 164.846 353.816 164.515 353.407L164.515 353.407C164.494 352.154 164.645 350.905 164.944 349.693Z" fill="#F2F2F2"/>
<path d="M37.7905 349.693C38.089 350.905 38.2399 352.154 38.2192 353.407L38.2191 353.407C37.8884 353.816 37.5545 354.221 37.2238 354.629C37.2113 354.644 37.1986 354.66 37.1829 354.676C36.531 355.473 35.879 356.277 35.2271 357.074C36.0271 357.222 36.8459 357.269 37.6585 357.219C37.6301 357.316 37.6018 357.417 37.5703 357.514H28.7834C27.7188 355.222 26.8905 352.817 26.3236 350.356H26.3205C21.1351 352.125 16.2875 351.548 15.1589 345.474C13.9999 344.215 13.0739 342.755 12.4094 341.182C12.4314 341.179 12.4503 341.176 12.4724 341.172L12.503 341.168C13.8547 340.96 14.2489 339.197 13.1082 338.445C12.9082 338.313 12.7034 338.188 12.4944 338.071C12.1291 337.867 11.7512 337.684 11.3638 337.527L11.3532 337.458C11.1346 336.011 12.7394 335.023 13.9917 335.787C16.5934 337.375 20.0004 338.102 22.412 340.077C24.0308 341.402 25.1457 343.314 25.5457 345.361L25.5552 345.427C25.3977 343.568 25.3851 341.697 25.53 339.835C25.6465 338.359 25.8544 336.89 26.1536 335.437C26.4874 333.791 26.9378 332.168 27.5015 330.586C27.3787 330.526 27.259 330.463 27.1362 330.401C21.5718 330.287 17.6748 327.752 19.4799 320.794C19.2909 320.062 19.1618 319.318 19.0862 318.568L19.1168 318.563C20.4685 318.355 20.8627 316.592 19.722 315.84C19.522 315.708 19.3172 315.583 19.1082 315.466C19.111 315.44 19.1138 315.414 19.1167 315.387C19.4144 312.689 22.8801 311.76 24.5702 313.889C25.9772 315.661 27.575 317.387 28.4274 319.437C29.1763 321.237 29.6155 324.028 29.318 326.344C30.3708 324.26 31.6196 322.276 33.0634 320.429C33.1421 320.329 33.224 320.232 33.3028 320.131C32.5375 318.91 32.4176 317.366 31.5454 316.226C30.1744 314.433 30.196 312.568 32.4304 311.444C33.4763 308.773 35.4799 308.43 36.9341 310.395C37.2265 310.791 37.7057 310.992 37.9734 311.397C37.8285 311.576 38.3608 314.493 38.5529 314.467C38.4395 315.149 38.2002 315.817 37.8947 316.439C37.0443 318.163 35.6365 319.601 33.9484 320.52C30.4368 324.881 28.0023 330.102 26.878 335.584C26.6701 336.598 26.5095 337.622 26.3929 338.651C26.2512 339.91 26.1819 341.173 26.1819 342.435C26.1819 347.458 27.2874 352.453 29.388 357.027C29.1644 356.041 29.1077 355.018 29.2337 354.013C29.5148 351.737 30.6562 349.581 31.5527 347.429C32.5628 345.004 36.0154 344.987 37.0342 347.409C37.0443 347.433 37.0543 347.457 37.0643 347.481L36.9885 347.781C36.2263 348.508 36.7831 349.756 37.7905 349.693Z" fill="#F2F2F2"/>
<path d="M130.849 224.233H76.7041L76.7634 223.693L95.9656 49.6023H114.286L114.328 50.0426L130.849 224.233ZM79.255 223.26H128.315L113.399 50.5745H96.8394L79.255 223.26Z" fill="#3F3D56"/>
<path d="M144.997 231.288H61.4418V223.26H144.997V231.288ZM62.417 230.316H144.022V224.233H62.417V230.316Z" fill="#3F3D56"/>
<path d="M120.434 50.5745H90.4504V42.5462H120.434V50.5745ZM91.4257 49.6023H119.459V43.5184H91.4257V49.6023Z" fill="#3F3D56"/>
<path d="M134.568 243.056L146.071 289.9H150.07L134.568 243.056ZM146.071 289.9H134.744L123.144 242.652L122.905 241.68L120.354 231.287H130.677L134.115 241.68L134.437 242.652L134.568 243.056L134.471 242.652L134.232 241.68L131.443 230.315H119.116L121.905 241.68L122.144 242.652L133.983 290.872H146.31L146.071 289.9Z" fill="#3F3D56"/>
<path d="M72.1489 241.68L71.8075 242.652L55.3749 289.9H60.3681L71.9684 242.652L72.2074 241.68L72.3488 241.101L72.1489 241.68ZM74.9965 230.315L72.3488 241.101L75.7621 231.287H86.08L83.5298 241.68L83.2909 242.652L71.6905 289.9H60.3681L60.1291 290.872H72.4561L84.2954 242.652L84.5343 241.68L87.3234 230.315H74.9965Z" fill="#3F3D56"/>
<path d="M177.791 357.514H156.852L136.952 325.912L137.848 325.529L157.495 356.542H175.336L150.928 297.635L151.824 297.251L177.791 357.514Z" fill="#3F3D56"/>
<path d="M48.1705 357.514H27.2321L53.1988 297.251L54.0949 297.635L29.6878 356.542H47.5281L67.1748 325.529L68.071 325.912L48.1705 357.514Z" fill="#3F3D56"/>
<path d="M185.701 297.929H23.9678V289.901H185.701V297.929ZM24.943 296.957H184.726V290.873H24.943V296.957Z" fill="#3F3D56"/>
<path d="M147.083 342.191C117.442 330.053 87.3844 330.053 57.7428 342.191L57.1549 341.332C85.4565 324.265 111.918 321.341 147.671 341.332L147.083 342.191Z" fill="#3F3D56"/>
<path d="M144.64 329.187C116.743 317.031 88.4528 317.031 60.556 329.187L60.1283 328.303C88.3093 316.023 116.887 316.023 145.068 328.303L144.64 329.187Z" fill="#3F3D56"/>
<path d="M134.471 242.652H71.8075L72.1488 241.68H134.232L134.471 242.652Z" fill="#3F3D56"/>
<path d="M135.968 248.287H70.1399L71.1151 246.278H135.48L135.968 248.287Z" fill="#3F3D56"/>
<path d="M114.33 43.5671H95.9149V27.2376H114.33V43.5671ZM96.8901 42.5949H113.355V29.182L97.8654 28.2098L96.8901 42.5949Z" fill="#3F3D56"/>
<path d="M107.645 28.2098H102.024V0H107.645V28.2098ZM102.999 27.2376H106.67L105.248 0.8052L102.999 0.972171V27.2376Z" fill="#3F3D56"/>
<path d="M158.636 196.462C157.75 194.186 155.181 193.058 152.898 193.941C150.637 194.816 149.506 197.336 150.346 199.595L150.28 199.621L153.488 207.861L161.094 204.918C161.346 204.869 161.596 204.798 161.844 204.703C164.126 203.819 165.259 201.259 164.373 198.983C163.487 196.708 160.918 195.579 158.636 196.462Z" fill="#6C63FF"/>
<path d="M88.4191 276.666C87.5332 274.391 84.9645 273.262 82.6818 274.145C80.4208 275.02 79.2896 277.54 80.1292 279.799L80.063 279.825L83.271 288.065L90.8776 285.123C91.1291 285.073 91.3798 285.002 91.6271 284.907C93.9098 284.024 95.0422 281.463 94.1563 279.187C93.2704 276.912 90.7018 275.783 88.4191 276.666Z" fill="#6C63FF"/>
<path d="M71.7264 106.292C69.2885 106.064 67.1269 107.849 66.8982 110.28C66.6717 112.687 68.4271 114.823 70.8295 115.084L70.8229 115.155L79.6513 115.98L80.4132 107.882C80.4812 107.636 80.53 107.381 80.5547 107.117C80.7834 104.687 78.9925 102.532 76.5546 102.304C74.1167 102.076 71.9551 103.862 71.7264 106.292Z" fill="#6C63FF"/>
<path d="M344 357.028H0V358H344V357.028Z" fill="#3F3D56"/>
<path d="M312.141 224.218C312.06 223.534 311.463 222.945 310.776 222.871C310.274 222.818 309.662 222.977 309.446 222.335C309.366 222.099 309.39 221.842 309.472 221.607C309.863 220.488 308.976 219.207 307.832 219.07C306.804 218.947 305.757 219.772 305.64 220.798C305.34 220.668 305.025 220.577 304.705 220.517C303.752 220.26 302.756 220.161 301.764 220.208L299.984 220.291C299.875 220.269 299.767 220.251 299.659 220.235C295.587 219.651 292.334 223.549 293.392 227.512C296.258 238.24 289.923 239.03 292.669 243.957L305.738 241.726C307.919 241.821 308.587 249.177 308.599 247L309.066 230.479C309.353 229.459 309.533 228.514 309.612 227.637C309.671 227.545 309.726 227.45 309.772 227.349C310.025 226.794 309.99 226.1 309.664 225.6C310.074 225.909 310.641 226.018 311.128 225.845C311.779 225.614 312.222 224.903 312.141 224.218Z" fill="#2F2E41"/>
<path d="M277.245 284.238L280.323 265.686L284.948 265.234L280.453 284.679C280.771 285.028 280.996 285.469 281.076 285.969C281.296 287.34 280.36 288.629 278.985 288.849C277.61 289.068 276.317 288.134 276.096 286.764C275.932 285.738 276.415 284.758 277.245 284.238Z" fill="#FFB6B6"/>
<path d="M292.393 247.196C292.393 247.196 288.129 242.367 285.404 246.615C282.679 250.863 282.291 254.35 280.176 261.741C278.501 267.59 279.345 270.482 279.345 270.482L284.068 271.487L287.312 263.314L292.393 247.196Z" fill="#E6E6E6"/>
<path d="M301.535 349.127L298.482 349.868L294.098 338.225L298.602 337.131L301.535 349.127Z" fill="#FFB6B6"/>
<path d="M293.003 356.411C293.187 357.162 293.946 357.623 294.7 357.441L300.768 355.966L301.285 353.557L302.22 355.612L304.51 355.057L301.987 347.524L301.179 347.672L297.88 348.265L296.816 348.459L297.348 350.636L293.318 355.15C293.012 355.493 292.894 355.965 293.003 356.411Z" fill="#2F2E41"/>
<path d="M306.257 350.724L303.116 350.789L301.365 338.475L306 338.379L306.257 350.724Z" fill="#FFB6B6"/>
<path d="M296.345 355.993C296.362 356.766 297.003 357.38 297.778 357.365L304.022 357.235L305.05 354.995L305.517 357.203L307.873 357.156L307.047 349.257L306.225 349.226L302.876 349.094L301.796 349.053L301.842 351.294L296.927 354.83C296.553 355.099 296.335 355.534 296.345 355.993Z" fill="#2F2E41"/>
<path d="M309.359 301.257L274.218 302.01L280.861 279.707H309.359V301.257Z" fill="#D6D5DA"/>
<path d="M303.087 235.82H296.357V240.893L290.12 244.984L287.493 251.447L288.806 255.047L286.11 272.028L303.087 263.392L308.586 241.956L305.057 239.829L303.087 235.82Z" fill="#6C63FF"/>
<path d="M307.487 263.392L287.493 262.247L278.561 286.352L277.334 306.103L294.88 343.928H301.287L288.472 307.072L290.87 287.729L300.647 343.817L307.487 343.727L305.351 310.18L307.487 263.392Z" fill="#2F2E41"/>
<path d="M305.057 239.829C305.057 239.829 302.216 255.313 302.216 262.247C302.216 269.182 297.091 301.257 297.091 301.257H309.359L311.595 240.986L305.057 239.829Z" fill="#E6E6E6"/>
<path d="M291.002 243.583C291.002 243.583 284.433 245.133 283.894 252.047C283.354 258.96 274.218 302.01 274.218 302.01H280.537L296.357 240.893L291.002 243.583Z" fill="#E6E6E6"/>
<path d="M300.791 235.352C304.87 235.352 308.177 232.056 308.177 227.989C308.177 223.923 304.87 220.627 300.791 220.627C296.712 220.627 293.405 223.923 293.405 227.989C293.405 232.056 296.712 235.352 300.791 235.352Z" fill="#FFB6B6"/>
<path d="M309.82 282.661L309.87 263.856L314.363 262.671L313.058 282.582C313.428 282.876 313.721 283.275 313.88 283.756C314.318 285.074 313.602 286.496 312.28 286.933C310.958 287.369 309.531 286.655 309.093 285.337C308.765 284.351 309.085 283.307 309.82 282.661Z" fill="#FFB6B6"/>
<path d="M307.12 242.388C307.12 242.388 312.3 238.552 314.076 243.273C315.852 247.995 315.502 251.486 316.024 259.154C316.437 265.223 314.542 268.298 314.542 268.298H309.713L308.715 259.208L307.12 242.388Z" fill="#E6E6E6"/>
<path d="M309.4 233.552L311.022 238.015C310.967 239.645 310.633 239.959 309.071 240.445L303.715 244.537C306.292 241.602 302.469 237.982 304.01 235.399C305.634 232.678 305.753 227.059 302.619 226.539C301.068 226.282 297.936 227.866 296.945 226.929C297.138 226.212 296.612 226.161 296.145 226.726C294.074 227.033 292.828 228.295 292.005 226.835V225.377C293.307 221.251 292.98 220.03 297.711 219.889C299.394 219.839 301.075 219.728 302.727 220.056L304.067 220.323C306.667 221.05 307.822 222.062 308.809 224.358C308.809 224.358 311.58 225.81 309.4 233.552Z" fill="#2F2E41"/>
</g>
<defs>
<clipPath id="clip0_47_181">
<rect width="344" height="358" fill="white"/>
</clipPath>
</defs>
</svg>
