<svg width="382" height="315" viewBox="0 0 382 315" fill="none" xmlns="http://www.w3.org/2000/svg">
<path d="M363.374 76.4977C363.374 106.634 316.268 195.51 289.258 243.991C287.426 247.28 284.749 250.02 281.503 251.928C278.257 253.836 274.56 254.842 270.795 254.842C267.03 254.842 263.333 253.836 260.087 251.928C256.841 250.02 254.163 247.28 252.331 243.991C225.322 195.51 178.215 106.634 178.215 76.4977C178.215 34.2492 219.665 1.52588e-05 270.795 1.52588e-05C321.925 1.52588e-05 363.374 34.2492 363.374 76.4977Z" fill="#6C63FF"/>
<path d="M271.229 126.047C299.075 126.047 321.648 103.474 321.648 75.6284C321.648 47.7828 299.075 25.2095 271.229 25.2095C243.384 25.2095 220.811 47.7828 220.811 75.6284C220.811 103.474 243.384 126.047 271.229 126.047Z" fill="white"/>
<path d="M60.8345 121.248C77.5129 121.248 91.0334 107.728 91.0334 91.0493C91.0334 74.3709 77.5129 60.8504 60.8345 60.8504C44.1561 60.8504 30.6356 74.3709 30.6356 91.0493C30.6356 107.728 44.1561 121.248 60.8345 121.248Z" fill="#FF6584"/>
<path d="M270.795 314.116C311.167 314.116 343.895 311.59 343.895 308.473C343.895 305.357 311.167 302.83 270.795 302.83C230.422 302.83 197.694 305.357 197.694 308.473C197.694 311.59 230.422 314.116 270.795 314.116Z" fill="#6C63FF"/>
<path opacity="0.4" d="M54.6857 117.905C56.2227 108.433 49.7906 99.5095 40.3194 97.9725C30.8481 96.4356 21.9241 102.868 20.3871 112.339C18.8502 121.81 25.2822 130.734 34.7535 132.271C44.2247 133.808 53.1487 127.376 54.6857 117.905Z" fill="#6C63FF"/>
<path opacity="0.4" d="M354.055 205.11C364.579 205.11 373.11 196.579 373.11 186.055C373.11 175.531 364.579 167 354.055 167C343.531 167 335 175.531 335 186.055C335 196.579 343.531 205.11 354.055 205.11Z" fill="#6C63FF"/>
<path d="M2.92081 222.413V230.81L2.50354 231.262V222.326C2.64263 222.352 2.78175 222.387 2.92081 222.413Z" fill="#3F3D56"/>
<path d="M29.6776 305.735C29.5559 305.935 29.4255 306.134 29.2951 306.334H2.50354V222.83L2.92081 222.413L6.47621 226.455V220.544H17.777V239.303L29.1908 252.264L29.2951 252.386C29.4342 252.821 29.5646 253.255 29.695 253.69C29.6959 253.697 29.699 253.703 29.7037 253.707C31.4155 259.185 32.8201 264.755 33.9111 270.389C36.3972 283.681 36.0234 295.868 29.6776 305.735Z" fill="#CCCCCC"/>
<path d="M11.9106 268.57H4.71771V274.564H11.9106V268.57Z" fill="#3F3D56"/>
<path d="M11.9106 279.36H4.71771V285.354H11.9106V279.36Z" fill="#3F3D56"/>
<path d="M233.481 257.181L229.885 251.188L263.452 222.416C288.268 210.471 318.181 213.918 349.767 222.416V230.807L318.598 264.375L282.633 271.567L233.481 257.181Z" fill="#3F3D56"/>
<path d="M364.625 239.3C370.586 232.67 371.414 226.365 364.625 220.543H353.324V226.458L349.767 222.416L320.995 251.188L316.2 255.983L310.206 279.959L320.995 306.333H376.141V252.386L364.625 239.3Z" fill="#CCCCCC"/>
<path d="M229.885 251.187H320.995V306.333H229.885C218.862 294.408 224.589 272.672 229.885 251.187Z" fill="#F2F2F2"/>
<path d="M308.408 268.57H289.227V285.354H308.408V268.57Z" fill="#3F3D56"/>
<path d="M281.434 267.971H264.651V306.333H281.434V267.971Z" fill="#CCCCCC"/>
<path d="M245.47 273.965V267.971H238.277V273.965H244.87H245.47Z" fill="#3F3D56"/>
<path d="M244.87 278.76H238.277V284.755H245.47V278.76H244.87Z" fill="#3F3D56"/>
<path d="M257.458 267.971H250.265V273.965H257.458V267.971Z" fill="#3F3D56"/>
<path d="M257.458 278.76H250.265V284.754H257.458V278.76Z" fill="#3F3D56"/>
<path d="M346.77 274.565V268.57H339.577V274.565H346.17H346.77Z" fill="#3F3D56"/>
<path d="M346.17 279.36H339.577V285.354H346.77V279.36H346.17Z" fill="#3F3D56"/>
<path d="M358.758 268.57H351.565V274.564H358.758V268.57Z" fill="#3F3D56"/>
<path d="M358.758 279.36H351.565V285.354H358.758V279.36Z" fill="#3F3D56"/>
<path d="M71.2524 156.481L65.2586 151.685L98.8254 121.715H183.941V148.089L128.796 185.253L71.2524 156.481Z" fill="#3F3D56"/>
<path d="M199.46 138.527V122.313H188.159V126.284L183.941 121.714L156.368 151.685L145.579 158.878L128.85 281.103L154.079 306.333H212.713C221.697 261.14 228.821 214.714 212.713 152.884L199.46 138.527Z" fill="#CCCCCC"/>
<path d="M65.2581 151.685H156.368V306.333H65.2581C55.2881 246.254 50.4189 190.539 65.2581 151.685Z" fill="#F2F2F2"/>
<path d="M117.407 268.57H100.623V306.333H117.407V268.57Z" fill="#CCCCCC"/>
<path d="M82.6409 279.36V273.366H75.4484V279.36H82.042H82.6409Z" fill="#3F3D56"/>
<path d="M82.042 284.155H75.4484V290.15H82.6409V284.155H82.042Z" fill="#3F3D56"/>
<path d="M94.6292 273.366H87.4363V279.36H94.6292V273.366Z" fill="#3F3D56"/>
<path d="M131.193 284.155H124.6V290.15H131.792V284.155H131.193Z" fill="#3F3D56"/>
<path d="M143.781 273.366H136.588V279.36H143.781V273.366Z" fill="#3F3D56"/>
<path d="M143.781 284.155H136.588V290.149H143.781V284.155Z" fill="#3F3D56"/>
<path d="M182.143 159.478V153.484H174.95V159.478H181.544H182.143Z" fill="#3F3D56"/>
<path d="M181.544 164.274H174.95V170.267H182.143V164.274H181.544Z" fill="#3F3D56"/>
<path d="M194.131 153.484H186.938V159.478H194.131V153.484Z" fill="#3F3D56"/>
<path d="M194.131 164.273H186.938V170.267H194.131V164.273Z" fill="#3F3D56"/>
<path d="M182.143 193.045V187.051H174.95V193.045H181.544H182.143Z" fill="#3F3D56"/>
<path d="M181.544 197.84H174.95V203.834H182.143V197.84H181.544Z" fill="#3F3D56"/>
<path d="M194.131 187.051H186.938V193.045H194.131V187.051Z" fill="#3F3D56"/>
<path d="M194.131 197.84H186.938V203.834H194.131V197.84Z" fill="#3F3D56"/>
<path d="M182.143 226.612V220.618H174.95V226.612H181.544H182.143Z" fill="#3F3D56"/>
<path d="M181.544 231.407H174.95V237.401H182.143V231.407H181.544Z" fill="#3F3D56"/>
<path d="M194.131 220.617H186.938V226.612H194.131V220.617Z" fill="#3F3D56"/>
<path d="M194.131 231.407H186.938V237.401H194.131V231.407Z" fill="#3F3D56"/>
<path d="M182.143 260.179V254.184H174.95V260.179H181.544H182.143Z" fill="#3F3D56"/>
<path d="M181.544 264.974H174.95V270.968H182.143V264.974H181.544Z" fill="#3F3D56"/>
<path d="M194.131 254.184H186.938V260.178H194.131V254.184Z" fill="#3F3D56"/>
<path d="M194.131 264.974H186.938V270.968H194.131V264.974Z" fill="#3F3D56"/>
<path d="M75.4481 159.478H144.98V173.864C122.693 167.713 99.4516 168.154 75.4481 173.864V159.478Z" fill="#3F3D56"/>
<path d="M75.4481 188.249C97.1496 194.643 120.327 194.643 144.98 188.249V202.635H75.4481V188.249Z" fill="#3F3D56"/>
<path d="M75.4481 217.021H144.98V231.407C121.283 223.84 98.0818 223.484 75.4481 231.407V217.021Z" fill="#3F3D56"/>
<path d="M75.4481 245.793C98.1245 254.532 121.322 254.168 144.98 245.793V260.179H75.4481V245.793Z" fill="#3F3D56"/>
<path d="M120.651 88.6678H130.984C141.174 88.6678 150.947 92.716 158.153 99.9219C165.359 107.128 169.408 116.901 169.408 127.092H120.651V88.6678Z" fill="#3F3D56"/>
<path d="M285.817 185.159H296.149C306.34 185.159 316.113 189.207 323.319 196.413C330.525 203.619 334.573 213.392 334.573 223.583H285.817V185.159Z" fill="#3F3D56"/>
<path d="M48.203 237.06H46.4644V305.734H48.203V237.06Z" fill="#3F3D56"/>
<path d="M64.2481 245.812C64.3588 269.826 47.464 289.371 47.464 289.371C47.464 289.371 25.8279 269.566 30.279 245.969C34.7555 222.236 48.7071 202.511 47.0632 202.41C47.0632 202.41 64.1375 221.799 64.2481 245.812Z" fill="#6C63FF"/>
<path d="M222.061 237.06H220.323V305.734H222.061V237.06Z" fill="#3F3D56"/>
<path d="M238.107 245.812C239.674 269.775 221.322 289.371 221.322 289.371C221.322 289.371 204.248 269.982 204.137 245.969C204.027 221.955 220.922 202.41 220.922 202.41C219.274 208.993 236.839 226.424 238.107 245.812Z" fill="#6C63FF"/>
<path d="M109.107 125.429L184.626 121.735L216.306 148.178L210.705 153.234L160.539 152.105L109.107 125.429Z" fill="#3F3D56"/>
<path d="M33.7546 248.144L29.6863 251.821L29.1908 252.264L28.1564 253.203L2.50356 252.63V222.326C1.66904 222.143 0.83452 221.97 0 221.804L2.07762 221.7L2.50356 222.057L6.47623 225.369L17.777 234.809L30.3991 245.345L33.7546 248.144Z" fill="#3F3D56"/>
<path d="M274.273 225.398L349.792 221.703L381.471 248.146L375.87 253.203L325.704 252.074L274.273 225.398Z" fill="#3F3D56"/>
<path d="M211.935 297.898C213.407 303.341 218.451 306.712 218.451 306.712C218.451 306.712 221.107 301.258 219.635 295.815C218.162 290.371 213.118 287 213.118 287C213.118 287 210.462 292.454 211.935 297.898Z" fill="#3F3D56"/>
<path d="M214.098 296.728C218.139 300.661 218.633 306.708 218.633 306.708C218.633 306.708 212.575 306.377 208.534 302.444C204.494 298.51 204 292.464 204 292.464C204 292.464 210.058 292.794 214.098 296.728Z" fill="#6C63FF"/>
</svg>
